<svg width="344" height="333" xmlns="http://www.w3.org/2000/svg">
 <g>
  <title>Layer 1</title>
  <g id="svg_1">
   <g id="svg_2">
    <path stroke-width="3" stroke="#00a0b0" d="m256.533997,58.379997c-7.227997,-36.659996 -70.084991,-58.361995 -84.681992,-30.885996c-14.591003,-27.494001 -77.448006,-5.792 -84.671005,30.885996c-9.446999,38.312004 -59.431,48.857002 -87.181,28.864998c0,43.311005 46.644001,43.870987 75.510002,46.643997c68.374992,-2.988998 89.978004,-34.522995 96.342003,-48.92099c6.369995,14.409996 27.979004,45.931992 96.348007,48.92099c28.888977,-2.772995 75.515991,-3.332993 75.515991,-46.643997c-27.768005,19.992004 -77.735016,9.447006 -87.182007,-28.864998z" id="svg_3" fill="#ffffff"/>
    <path stroke-width="3" stroke="#00a0b0" d="m170.893997,100.562996c-37.845001,51.71801 -113.846001,40.000008 -113.846001,40.000008s-3.597,70.838989 18.713005,89.358994c-1.396011,82.451996 87.841003,100.561981 110.207993,101.964996c22.373001,1.389008 65.099991,-25.445007 56.098007,-41.863007c18.262985,-17.923981 24.240982,-39.970993 22.349991,-61.490997c19.570007,-2.789993 8.617004,-86.095001 8.617004,-86.095001s-77.792999,2.848007 -102.139999,-41.874992z" id="svg_4" fill="#ffffff"/>
   </g>
  </g>
  <g id="svg_5"/>
  <g id="svg_6"/>
  <g id="svg_7"/>
  <g id="svg_8"/>
  <g id="svg_9"/>
  <g id="svg_10"/>
  <g id="svg_11"/>
  <g id="svg_12"/>
  <g id="svg_13"/>
  <g id="svg_14"/>
  <g id="svg_15"/>
  <g id="svg_16"/>
  <g id="svg_17"/>
  <g id="svg_18"/>
  <g id="svg_19"/>
 </g>
</svg>