<svg width="486.323" height="486.323" xmlns="http://www.w3.org/2000/svg">
 <g>
  <title>Layer 1</title>
  <g id="svg_22">
   <path stroke="#00a0b0" stroke-width="7" fill="#ffffff" id="svg_23" d="m378.082001,273.315002l-59.070007,-17.610001c-3.815979,4.771011 -7.819,9.133011 -11.932007,13.145004l11.682007,3.488007l-69.031998,105.251984c-3.660995,5.584015 -12.856003,5.59201 -16.516006,-0.006989l-68.470001,-104.401001l14.514999,-4.324005c-4.128998,-4.02002 -8.117996,-8.382019 -11.94899,-13.161011l-59.070007,17.618011c-13.229996,3.940979 -22.285995,16.092987 -22.285995,29.886993v25.915009c0,86.821991 70.376999,157.207001 157.207993,157.207001c86.829987,0 157.207001,-70.38501 157.207001,-157.207001v-25.915009c0,-13.794006 -9.054993,-25.945984 -22.286987,-29.886993z"/>
   <path stroke="#00a0b0" stroke-width="7" fill="#ffffff" id="svg_24" d="m344.579987,128.022995c1.13501,-7.376999 1.428009,-16.674004 1.503998,-23.566002c5.057007,2.729004 14.639008,3.144005 14.639008,3.144005c-5.929016,-7.038002 -27.738007,-74.980007 -35.938995,-80.754002c15.324982,-3.323 26.431,-11.830999 26.431,-11.830999c-15.253998,0.847 -41.720001,-5.535 -49.481995,-7.513c-9.119995,-4.684997 -19.325012,-7.502997 -30.186005,-7.502997h-54.69101c-22.942993,0 -43.663986,11.53 -55.205994,29.84c-9.651001,15.311001 -27.447998,46.049999 -40.146996,60.243c0,0 6.489998,-0.796997 14.810997,-3.315002c2.753006,-0.836998 5.692993,-1.852997 8.679993,-3.097c-3.054993,18.116005 -3.5,37.685005 -3.231995,44.345009c-7.921997,3.237 -13.888,10.608994 -16.487999,20.424988c-2.455002,9.331009 -1.814003,20.208008 1.814003,30.616013c5.724991,16.435989 17.905991,28.516998 31.167999,31.223999c0.078003,0.179993 0.203995,0.366989 0.281998,0.547989v5.121002l0.156998,-0.078003c0.125,5.037003 1.438004,10.626999 5.020996,16.476013c0,0 21.534012,32.975998 49.466003,55.831985l-0.028992,-0.412994c4.315994,4.346008 10.070999,7.186005 16.528992,7.186005h28.965012c6.458984,0 12.214996,-2.839996 16.529999,-7.186005l-0.029999,0.412994c27.931976,-22.855988 49.46698,-55.831985 49.46698,-55.831985c3.582001,-5.849014 4.89502,-11.439011 5.02002,-16.476013l0.156982,0.078003v-6.25499c12.386017,-3.269012 23.959991,-14.804001 29.479004,-30.638c7.78302,-22.440002 1.328003,-44.526001 -14.690002,-51.034012zm-66.47998,113.324005c-4.363007,3.417007 -10.243011,4.231003 -15.389008,2.134995c-5.130005,-2.093994 -8.759995,-6.786987 -9.493988,-12.298996c-0.188004,-1.313995 -1.296997,-2.291992 -2.626007,-2.291992h-12.856995c-1.330002,0 -2.439011,0.97699 -2.626999,2.291992c-0.734009,5.503998 -4.363007,10.197006 -9.51001,12.292007c-5.128998,2.103989 -11.009995,1.28299 -15.388992,-2.13501l-2.516998,-1.977997l6.144989,-17.304993c3.379013,-9.492004 12.355011,-15.834 22.442001,-15.834h15.891006c10.070984,0 19.049011,6.341995 22.428009,15.834l6.128998,17.235001l-2.626007,2.054993zm66.04599,-67.552994c-3.283997,9.421005 -8.915009,15.615997 -14.358002,18.703995v-20.587997c0,-2.487 -2.018005,-4.50499 -4.505005,-4.50499h-5.738983c-1.95401,0 -3.675018,1.251999 -4.283997,3.104996l-7.195007,22.011993l-3.299011,10.275009c-4.363983,9.164993 -6.615997,17.977997 -13.169983,26.280991c0.235992,-1.806 0.438995,-3.634995 0.438995,-5.503998c0,-25.337006 -21.425995,-45.886993 -47.873001,-45.886993c-26.414001,0 -47.841003,20.549988 -47.841003,45.886993c0,1.882996 0.203003,3.729004 0.437988,5.550995c-6.584,-8.319992 -8.818985,-17.140991 -13.199997,-26.327988l-3.298996,-10.275009l-7.194992,-22.011993c-0.608002,-1.852997 -2.330002,-3.104996 -4.283005,-3.104996h-5.740005c-2.485992,0 -4.50499,2.01799 -4.50499,4.50499v21.722c-5.942001,-2.485001 -12.621002,-9.179993 -16.327011,-19.83699c-2.548996,-7.335999 -3.080994,-15.084 -1.453995,-21.263c0.798004,-2.979004 2.800003,-8.219009 7.460007,-9.835999c0.5,-0.173004 1.485992,-0.274002 1.969986,-0.322006c3.957001,-0.382996 7.03801,-3.611008 7.226013,-7.584c0.172989,-3.697998 0.606995,-7.268005 1.501999,-10.768997c12.041992,-47.082001 52.985992,-50.475006 52.985992,-50.475006c-7.382996,17.352005 -19.315002,24.687004 -19.315002,24.687004c39.363007,-16.014999 51.625,-33.366997 51.625,-33.366997c26.196014,36.369995 62.292999,52.148994 83.139008,58.616997c0.609985,3.737999 1.376984,7.418999 1.565002,11.306999c0.187988,3.973007 3.268005,7.201996 7.22699,7.584c0.483002,0.048004 1.470001,0.149002 1.985016,0.322006c7.083008,2.469986 11.303986,15.856979 6.019989,31.097992z"/>
  </g>
  <g id="svg_25"/>
  <g id="svg_26"/>
  <g id="svg_27"/>
  <g id="svg_28"/>
  <g id="svg_29"/>
  <g id="svg_30"/>
  <g id="svg_31"/>
  <g id="svg_32"/>
  <g id="svg_33"/>
  <g id="svg_34"/>
  <g id="svg_35"/>
  <g id="svg_36"/>
  <g id="svg_37"/>
  <g id="svg_38"/>
  <g id="svg_39"/>
 </g>
</svg>